<svg xmlns="http://www.w3.org/2000/svg" viewBox="0 0 42.61 60.62"><defs><style>.cls-1{isolation:isolate;}.cls-2,.cls-3{fill:#65a18f;}.cls-3{opacity:0.5;}.cls-3,.cls-5{mix-blend-mode:multiply;}.cls-4{fill:#ffff90;}.cls-5,.cls-9{fill:#f8e659;}.cls-6{fill:#8dc440;}.cls-7{fill:#aad865;}.cls-8{fill:none;}</style></defs><title>Recurso 18</title><g class="cls-1"><g id="Capa_2" data-name="Capa 2"><g id="Layer_1" data-name="Layer 1"><path class="cls-2" d="M31.41,40.06V57a3.59,3.59,0,0,1-3.58,3.58H14.77A3.58,3.58,0,0,1,11.2,57v-17a21.06,21.06,0,0,0,9,2.52c.38,0,.74,0,1.12,0h0A21.12,21.12,0,0,0,31.41,40.06Z"/><path class="cls-3" d="M31.41,40.06V57a3.59,3.59,0,0,1-3.58,3.58H21.29V42h0v.63A21.12,21.12,0,0,0,31.41,40.06Z"/><path class="cls-4" d="M31.89,44.21l-10.59.7h0l-10.47.7a1.09,1.09,0,0,0-1,1.08v.09a1.12,1.12,0,0,0,1.18,1l10.32-.69L32,46.42a1.11,1.11,0,1,0-.15-2.21Z"/><path class="cls-4" d="M31.89,49.18l-10.6.69-10.47.7a1.11,1.11,0,0,0-1,1.1v.09a1.1,1.1,0,0,0,1.18,1l10.32-.68L32,51.39a1.11,1.11,0,1,0-.15-2.21Z"/><path class="cls-4" d="M31.89,54.14l-10.6.71-10.47.7a1.09,1.09,0,0,0-1,1.08v.09a1.12,1.12,0,0,0,1.18,1l10.32-.69L32,56.35a1.09,1.09,0,0,0,1-1.17A1.12,1.12,0,0,0,31.89,54.14Z"/><path class="cls-4" d="M42.61,21.3A21.31,21.31,0,0,1,21.3,42.61h0c-.38,0-.74,0-1.12,0a21.06,21.06,0,0,1-9-2.52A21.3,21.3,0,1,1,42.61,21.3Z"/><path class="cls-5" d="M42.61,21.3a21.31,21.31,0,0,1-11.2,18.76,21,21,0,0,1-9.3,2.52,7.22,7.22,0,0,1-.81,0V0A21.3,21.3,0,0,1,42.61,21.3Z"/><path class="cls-6" d="M32.47,32.51c-2.39,2-4.66,1.83-6.07,1L22.11,37v5.55a7.22,7.22,0,0,1-.81,0V15.42c2.43,0,4.28,4.79,4.28,8.7,0,3.36-1.84,5-3.47,5.42v5l2.94-2.4c-.78-1.53-.78-4.12,1.84-6.29,3-2.53,8-4.09,9.5-2.2S35.49,30,32.47,32.51Z"/><path class="cls-7" d="M21.29,15.42V42.61c-.38,0-.74,0-1.12,0V38.45L20,38.28h0L20,38.21l-4.78-5.57c-1.52.84-4.17.9-6.41-1.78-2.51-3-4.07-7.95-2.19-9.51s6.35.91,8.87,3.93c1.94,2.33,1.84,4.55,1.08,6l3.65,4.25v-6c-1.58-.53-3.29-2.16-3.29-5.32C16.88,20.19,18.85,15.41,21.29,15.42Z"/><line class="cls-8" x1="21.3" y1="43.57" x2="21.3" y2="42.61"/><path class="cls-9" d="M33.07,45.24a1.1,1.1,0,0,1-1,1.18l-10.75.71V44.91h0l10.59-.7A1.1,1.1,0,0,1,33.07,45.24Z"/><path class="cls-9" d="M33.07,50.2a1.11,1.11,0,0,1-1,1.19l-10.75.71V49.87l10.6-.69A1.1,1.1,0,0,1,33.07,50.2Z"/><path class="cls-9" d="M33.07,55.18a1.09,1.09,0,0,1-1,1.17l-10.75.72V54.85l10.6-.71A1.12,1.12,0,0,1,33.07,55.18Z"/><line class="cls-8" x1="21.29" y1="41.98" x2="21.29" y2="41.52"/></g></g></g></svg>