<?xml version="1.0" encoding="UTF-8" standalone="no"?>
<!-- Created with Inkscape (http://www.inkscape.org/) -->

<svg
   width="64pt"
   height="64pt"
   viewBox="0 0 22.577778 22.577778"
   version="1.1"
   id="svg831"
   inkscape:version="1.1.1 (3bf5ae0d25, 2021-09-20)"
   sodipodi:docname="Export.svg"
   inkscape:export-filename="C:\Users\User\Desktop\CARLOS PROJECT\5. MAY 1\Done\Expanded\06 - Boxing Glove.png"
   inkscape:export-xdpi="576"
   inkscape:export-ydpi="576"
   xmlns:inkscape="http://www.inkscape.org/namespaces/inkscape"
   xmlns:sodipodi="http://sodipodi.sourceforge.net/DTD/sodipodi-0.dtd"
   xmlns="http://www.w3.org/2000/svg"
   xmlns:svg="http://www.w3.org/2000/svg"
   xmlns:rdf="http://www.w3.org/1999/02/22-rdf-syntax-ns#"
   xmlns:cc="http://creativecommons.org/ns#"
   xmlns:dc="http://purl.org/dc/elements/1.1/">
  <defs
     id="defs825">
    <pattern
       id="EMFhbasepattern"
       patternUnits="userSpaceOnUse"
       width="6"
       height="6"
       x="0"
       y="0" />
    <pattern
       id="EMFhbasepattern-9"
       patternUnits="userSpaceOnUse"
       width="6"
       height="6"
       x="0"
       y="0" />
    <pattern
       id="EMFhbasepattern-0"
       patternUnits="userSpaceOnUse"
       width="6"
       height="6"
       x="0"
       y="0" />
    <pattern
       id="EMFhbasepattern-7"
       patternUnits="userSpaceOnUse"
       width="6"
       height="6"
       x="0"
       y="0" />
    <pattern
       id="EMFhbasepattern-2"
       patternUnits="userSpaceOnUse"
       width="6"
       height="6"
       x="0"
       y="0" />
    <pattern
       id="EMFhbasepattern-98"
       patternUnits="userSpaceOnUse"
       width="6"
       height="6"
       x="0"
       y="0" />
    <pattern
       id="EMFhbasepattern-6"
       patternUnits="userSpaceOnUse"
       width="6"
       height="6"
       x="0"
       y="0" />
    <pattern
       id="EMFhbasepattern-01"
       patternUnits="userSpaceOnUse"
       width="6"
       height="6"
       x="0"
       y="0" />
    <pattern
       id="EMFhbasepattern-07"
       patternUnits="userSpaceOnUse"
       width="6"
       height="6"
       x="0"
       y="0" />
    <pattern
       id="EMFhbasepattern-8"
       patternUnits="userSpaceOnUse"
       width="6"
       height="6"
       x="0"
       y="0" />
    <pattern
       id="EMFhbasepattern-4"
       patternUnits="userSpaceOnUse"
       width="6"
       height="6"
       x="0"
       y="0" />
    <pattern
       id="EMFhbasepattern-40"
       patternUnits="userSpaceOnUse"
       width="6"
       height="6"
       x="0"
       y="0" />
    <pattern
       id="EMFhbasepattern-08"
       patternUnits="userSpaceOnUse"
       width="6"
       height="6"
       x="0"
       y="0" />
    <pattern
       id="EMFhbasepattern-04"
       patternUnits="userSpaceOnUse"
       width="6"
       height="6"
       x="0"
       y="0" />
    <pattern
       id="EMFhbasepattern-014"
       patternUnits="userSpaceOnUse"
       width="6"
       height="6"
       x="0"
       y="0" />
    <pattern
       id="EMFhbasepattern-27"
       patternUnits="userSpaceOnUse"
       width="6"
       height="6"
       x="0"
       y="0" />
    <pattern
       id="EMFhbasepattern-09"
       patternUnits="userSpaceOnUse"
       width="6"
       height="6"
       x="0"
       y="0" />
    <pattern
       id="EMFhbasepattern-5"
       patternUnits="userSpaceOnUse"
       width="6"
       height="6"
       x="0"
       y="0" />
    <pattern
       id="EMFhbasepattern-018"
       patternUnits="userSpaceOnUse"
       width="6"
       height="6"
       x="0"
       y="0" />
  </defs>
  <sodipodi:namedview
     id="base"
     pagecolor="#ffffff"
     bordercolor="#666666"
     borderopacity="1.0"
     inkscape:pageopacity="0.0"
     inkscape:pageshadow="2"
     inkscape:zoom="6.5876941"
     inkscape:cx="10.322277"
     inkscape:cy="49.258511"
     inkscape:document-units="pt"
     inkscape:current-layer="layer1"
     showgrid="false"
     units="pt"
     inkscape:window-width="1920"
     inkscape:window-height="1001"
     inkscape:window-x="-9"
     inkscape:window-y="-9"
     inkscape:window-maximized="1"
     inkscape:pagecheckerboard="true"
     inkscape:showpageshadow="false"
     inkscape:object-paths="true"
     inkscape:snap-intersection-paths="true"
     inkscape:snap-smooth-nodes="true"
     inkscape:snap-midpoints="true"
     showguides="true"
     inkscape:snap-bbox="true"
     inkscape:bbox-nodes="true"
     inkscape:snap-nodes="false"
     inkscape:snap-global="true"
     inkscape:snap-others="false">
    <inkscape:grid
       type="xygrid"
       id="grid1378" />
    <sodipodi:guide
       position="0.97013831,21.607643"
       orientation="78.000048,0"
       id="guide1380"
       inkscape:locked="false" />
    <sodipodi:guide
       position="0.97013831,0.97013129"
       orientation="0,78.000005"
       id="guide1382"
       inkscape:locked="false" />
    <sodipodi:guide
       position="21.607639,0.97013129"
       orientation="-78.000048,0"
       id="guide1384"
       inkscape:locked="false" />
    <sodipodi:guide
       position="21.607639,21.607643"
       orientation="0,-78.000005"
       id="guide1386"
       inkscape:locked="false" />
  </sodipodi:namedview>
  <metadata
     id="metadata828">
    <rdf:RDF>
      <cc:Work
         rdf:about="">
        <dc:format>image/svg+xml</dc:format>
        <dc:type
           rdf:resource="http://purl.org/dc/dcmitype/StillImage" />
      </cc:Work>
    </rdf:RDF>
  </metadata>
  <g
     inkscape:label="Icon"
     inkscape:groupmode="layer"
     id="layer1"
     transform="translate(0,-274.42223)">
    <path
       id="path17867"
       style="color:#000000;display:inline;fill:#000000;stroke-width:1;stroke-linecap:round;stroke-linejoin:round;-inkscape-stroke:none"
       d="m 21.607639,282.02866 c -2.12e-4,-10e-4 -4.33e-4,-0.003 -6.66e-4,-0.005 -4.32e-4,-0.0319 -0.0054,-0.0636 -0.01495,-0.0942 -0.001,-0.003 -0.0021,-0.006 -0.0033,-0.009 -0.0044,-0.0127 -0.0097,-0.025 -0.01559,-0.0371 l -1.657348,-3.40895 v -0.77053 c 1e-6,-0.55502 -0.470835,-0.99728 -1.026517,-0.99728 h -3.876716 c -0.555682,0 -1.02652,0.44226 -1.026518,0.99728 v 0.77053 l -1.198687,2.46364 c -0.08006,0.16542 -0.01081,0.36441 0.154627,0.4444 0.165576,0.0805 0.365045,0.0113 0.44504,-0.15463 l 0.932963,-1.9179 1.159705,2.38634 h -1.540393 c -0.183968,-7.5e-4 -0.333586,0.14801 -0.333944,0.33198 -7.32e-4,0.18474 0.149214,0.33466 0.333944,0.33395 h 1.738584 v 11.64123 h -3.052267 c -0.183715,7.4e-4 -0.332064,0.15022 -0.331345,0.33394 3.66e-4,0.18296 0.148392,0.33129 0.331345,0.332 h 7.9854 c 0.539709,0 0.996633,-0.43029 0.996633,-0.96999 z M 0.98613661,292.84999 c -0.11503839,0.81533 0.40119169,1.59651 1.19803669,1.81004 0.7968449,0.2135 1.6345417,-0.20443 1.9425865,-0.96804 l 0.4489395,-1.11423 c 0.069892,-0.1708 -0.012607,-0.36585 -0.1838622,-0.43464 -0.1700742,-0.0682 -0.3632471,0.0141 -0.4320478,0.18385 l -0.4521894,1.11488 c -0.1842479,0.45675 -0.6730348,0.70247 -1.1512569,0.57434 -0.4782287,-0.12816 -0.7782767,-0.58498 -0.7094693,-1.07265 l 0.070816,-0.50027 c 0.2443934,0.25436 0.5655677,0.44795 0.9329628,0.54639 0.1776417,0.0479 0.3604561,-0.0575 0.4080075,-0.23519 0.048067,-0.17704 -0.056283,-0.35958 -0.2332398,-0.408 -0.5956819,-0.1596 -0.9685157,-0.66096 -0.9329627,-1.14671 l 0.078614,-0.55809 c 0.2449191,0.25404 0.5680126,0.44725 0.9355608,0.54575 0.1768401,0.0476 0.358936,-0.0566 0.4073589,-0.23325 0.047478,-0.17762 -0.058152,-0.36008 -0.2358378,-0.40735 -0.6138176,-0.16448 -0.9882116,-0.69169 -0.9258143,-1.1909 l 0.099401,-0.70362 c 0.2448392,0.2542 0.5670279,0.448 0.9342634,0.54639 0.177838,0.0479 0.3607455,-0.0578 0.4080076,-0.23583 0.047478,-0.17763 -0.058152,-0.36008 -0.2358378,-0.40736 -0.6042208,-0.1619 -0.9764493,-0.67532 -0.9284154,-1.1675 l 0.103302,-0.72896 c 0.2450321,0.25502 0.5675303,0.44974 0.9355608,0.54834 0.1776284,0.0475 0.3600869,-0.0581 0.4073589,-0.23583 0.047937,-0.17765 -0.057444,-0.36046 -0.2351926,-0.40801 -0.6138075,-0.16446 -0.9882081,-0.68908 -0.9258141,-1.18829 0.07364,-0.54585 0.153392,-1.09747 0.2307051,-1.64503 0.091048,-0.4523 0.3809537,-0.69161 0.8446025,-0.82251 0.4636489,-0.13089 1.0830151,-0.10397 1.6547733,0.0585 0.1777249,0.0512 0.3630664,-0.0524 0.4125571,-0.23064 0.049497,-0.17689 -0.053757,-0.36042 -0.2306409,-0.40996 -0.7992067,-0.16985 -1.3150607,-0.24838 -2.1920728,0.001 -0.069965,-0.83235 -0.037894,-1.92359 0.2156996,-2.59164 0.084009,-0.25674 0.1871187,-0.44749 0.2871647,-0.55549 0.3118469,-0.36701 0.917751,0.0646 0.8186265,0.40217 -0.1530727,0.51952 -0.2797003,1.09779 -0.3352419,1.59175 -0.02089,0.18335 0.1114817,0.34865 0.294962,0.36838 0.1821658,0.0194 0.3456934,-0.11227 0.3657785,-0.29432 0.1734105,-1.07801 0.4306007,-2.22552 1.016771,-3.14582 0.147597,-0.22626 0.2977121,-0.3809 0.4223019,-0.45933 0.2790649,-0.14872 0.4594773,-0.0465 0.5600368,0.15008 0.068683,0.13021 0.1204496,0.33901 0.1351366,0.60876 -0.00788,0.80104 -0.1252585,1.40767 -0.3073057,2.1245 -0.047478,0.17763 0.058155,0.36009 0.2358395,0.40736 0.1776294,0.0475 0.3600866,-0.0582 0.4073585,-0.23584 l 0.1221581,-0.48922 c 0.1954244,-0.1515 0.4138528,-0.16864 0.5632858,-0.0948 0.1313624,0.0758 0.1894815,0.18129 0.1988066,0.43465 0.00598,0.18481 0.1615361,0.32927 0.3462875,0.32159 0.1837843,-0.008 0.3266924,-0.16251 0.3190001,-0.34628 -0.01456,-0.39566 -0.1832179,-0.78314 -0.5327498,-0.98495 -0.261152,-0.13309 -0.4965786,-0.18999 -0.7490969,-0.10913 0.054441,-0.38244 0.076743,-0.74069 0.059123,-1.0642 -0.018029,-0.33107 -0.076439,-0.62884 -0.2111509,-0.88424 -0.1347055,-0.25538 -0.3662133,-0.46427 -0.6581408,-0.54249 -0.6256258,-0.13453 -1.1496679,0.3175 -1.4682132,0.80043 v 0 c -0.1884028,0.28881 -0.3567406,0.63499 -0.5074149,1.02197 -0.2086908,-0.25305 -0.4907728,-0.35236 -0.8062687,-0.38592 -0.3022235,1e-5 -0.5795254,0.14161 -0.7757387,0.35343 -0.1962133,0.21182 -0.3315394,0.48531 -0.4346456,0.80042 -0.2561259,0.93929 -0.3722053,2.1072 -0.198156,3.16077 -0.2583644,0.22756 -0.45029,0.53093 -0.5262525,0.90828 z M 18.889315,277.37295 c 0.211115,0 0.361232,0.15151 0.361232,0.33135 v 0.51325 h -4.599192 v -0.51325 c -2e-6,-0.17422 0.140365,-0.32228 0.341089,-0.33135 z m -4.039154,1.50989 h 4.525775 l 1.368258,2.81384 h -4.523826 z m 1.200636,0.91608 c -0.129008,0.12974 -0.129008,0.33932 0,0.46907 0.129751,0.12901 0.339331,0.12901 0.46908,0 0.419887,-0.20176 0.761649,-0.16062 1.193489,0 0.130048,0.13074 0.341632,0.13074 0.471679,0 0.129009,-0.12975 0.129009,-0.33933 0,-0.46907 -0.495806,-0.46152 -1.615583,-0.49708 -2.134248,0 z m -5.421704,1.50989 c -0.246483,0.28248 -0.497009,0.61805 -0.7185618,0.98624 -0.209873,-0.26348 -0.4787193,-0.50996 -0.8231637,-0.70882 -0.6140143,-0.3545 -1.3196839,-0.30072 -1.8594266,-0.18648 -0.5397433,0.11429 -0.9472569,0.30731 -0.9472555,0.30731 -0.1310397,0.0632 -0.2057798,0.2043 -0.1845132,0.34824 0.1094764,0.73635 0.3186628,1.55062 0.887483,2.13165 -0.2422741,0.11969 -0.4773335,0.2684 -0.7010205,0.44179 -1.1750014,0.91078 -2.0647304,2.51824 -2.0647304,4.37115 3.3e-6,2.80748 1.8777607,5.14883 4.2749924,5.14883 0.3802751,0 0.7491911,-0.0874 1.0999334,-0.2235 0.3813941,0.12763 0.7953179,0.2235 1.2376689,0.2235 2.397231,0 4.274989,-2.34135 4.274992,-5.14883 v -6.7e-4 -6.5e-4 -6.7e-4 -6.7e-4 -6.6e-4 -6.7e-4 -6.6e-4 -6.7e-4 -6.7e-4 -6.6e-4 -6.7e-4 -6.7e-4 -6.6e-4 -6.6e-4 -6.6e-4 -6.7e-4 c -0.02839,-1.14085 -0.470196,-2.64399 -1.360461,-3.71041 -0.345726,-0.41413 -0.766729,-0.76072 -1.260408,-0.97325 0.450953,-0.54893 0.600051,-1.30639 0.688676,-1.89645 0.02672,-0.17551 -0.08909,-0.34108 -0.263125,-0.37618 -0.686241,-0.16434 -1.238577,-0.26325 -1.867874,-0.18322 0.02931,-0.0354 0.05845,-0.0704 0.08771,-0.10397 0.120633,-0.13836 0.106387,-0.34828 -0.03183,-0.46907 -0.170716,-0.11982 -0.343547,-0.10234 -0.469081,0.0321 z m -1.8756686,0.85499 c 0.3765817,0.21742 0.6281692,0.49406 0.8101696,0.79523 -0.055476,0.12497 -0.1063961,0.25225 -0.1513789,0.38072 -0.4318841,-0.32226 -0.8896376,-0.57836 -1.3266773,-0.76859 -0.1689857,-0.0747 -0.3664914,0.003 -0.4398433,0.17217 -0.07255,0.16811 0.0044,0.36325 0.1721692,0.4366 0.4669001,0.20322 0.9678886,0.49689 1.4130866,0.86474 -0.002,0.0127 -0.00333,0.0256 -0.00521,0.0383 -0.3255366,-0.15802 -0.6677958,-0.24459 -1.0174223,-0.22804 v 6.7e-4 c -0.1695034,0.008 -0.3387406,0.0318 -0.5061123,0.0708 -0.51879,-0.37076 -0.6880298,-1.03324 -0.8199151,-1.71844 0.1414957,-0.0558 0.2059438,-0.0986 0.4833731,-0.15722 0.4846782,-0.11742 0.9488175,-0.05 1.38775,0.11303 z m 7.5897356,0.19881 h 4.59919 v 0.66529 h -1.409188 c -0.182954,3.7e-4 -0.331279,0.14839 -0.331993,0.33135 -7.33e-4,0.18395 0.148024,0.33358 0.331993,0.33393 h 1.409188 v 2.64557 c -0.179387,-0.0473 -0.389555,-0.0302 -0.535348,0.0435 -0.222605,0.0821 -0.236113,0.13741 -0.481424,0.0761 -0.23624,-0.0591 -0.427863,-0.28601 -0.702321,-0.53079 -0.420145,-0.37539 -0.831373,-0.36392 -1.271452,-0.12995 -0.351494,0.22499 -0.629115,0.56878 -0.719862,1.00443 -0.113629,0.54551 0.217654,0.96297 0.444391,1.25716 0.344038,0.40513 0.322019,0.54672 -0.05653,0.79588 -0.445489,0.11039 -0.873642,0.18038 -1.276651,0.30795 z m -4.807742,0.10523 c 0.23631,0.004 0.542834,0.083 0.837456,0.14747 -0.120547,0.57576 -0.266581,1.20154 -0.641249,1.4917 -0.563161,-0.0527 -1.191736,0.0956 -1.8464319,0.40606 -0.00947,-0.008 -0.019071,-0.0151 -0.028587,-0.0228 0.014663,-0.51107 0.2299819,-1.10627 0.5256029,-1.65347 0.367908,-0.25063 0.76547,-0.36062 1.153209,-0.36902 z m -3.201047,2.05043 c 0.4685441,-9.6e-4 0.904105,0.16141 1.2980905,0.55289 0.1032707,0.10297 0.2615635,0.12667 0.3904665,0.0585 0.737314,-0.3909 1.343475,-0.45182 1.863325,-0.32615 0.51985,0.12572 0.969728,0.44984 1.348117,0.90309 0.756097,0.9057 1.178296,2.3235 1.203235,3.29784 -0.0026,2.51026 -1.650706,4.47899 -3.607106,4.47899 -0.392781,0 -0.777114,-0.0792 -1.1194244,-0.20334 -0.081661,-0.0297 -0.1716664,-0.0261 -0.2507822,0.0101 -0.2871441,0.13045 -0.6165526,0.19425 -0.9673957,0.19425 -1.9579859,0 -3.6097015,-1.97102 -3.6097049,-4.4842 0,-1.6375 0.8059162,-3.06921 1.8074511,-3.84553 0.5007687,-0.38816 1.0451016,-0.60958 1.5495224,-0.63346 0.031525,-0.001 0.06297,-0.003 0.094206,-0.003 z m 10.444496,1.90555 c 0.206571,0.18424 0.487209,0.55515 0.987536,0.68024 0.421997,0.10548 0.738676,-0.0466 0.871241,-0.0956 0.118658,-0.0606 0.206157,0.009 0.304706,0.0293 v 6.66197 c 0,0.16453 -0.136195,0.30405 -0.331344,0.30405 H 16.34316 v -0.66528 h 1.409838 c 0.183715,7.3e-4 0.333227,-0.14764 0.333944,-0.33135 7.31e-4,-0.18474 -0.149214,-0.33467 -0.333944,-0.33394 H 16.34316 v -0.6653 h 1.409838 c 0.183968,7.3e-4 0.333585,-0.14802 0.333944,-0.33198 -7.32e-4,-0.18372 -0.150229,-0.33208 -0.333944,-0.33135 H 16.34316 v -1.13891 c 0.0067,-0.24439 0.06095,-0.30439 0.164373,-0.37618 0.434293,-0.19255 0.921298,-0.23782 1.343569,-0.35083 0.63109,-0.1691 0.891037,-0.77674 0.677632,-1.33578 -0.263951,-0.39402 -0.702109,-0.71593 -0.645795,-1.20583 0.052,-0.24962 0.191483,-0.42887 0.426849,-0.57953 0.242613,-0.12638 0.26737,-0.0683 0.469079,0.0663 z m -11.9992159,0.19232 c -0.045487,0.16975 0.055993,0.36046 0.2338901,0.40865 0.1778969,0.0482 0.3618746,-0.0585 0.4086583,-0.23648 0.046783,-0.178 -0.047556,-0.36024 -0.2364891,-0.40606 -0.1889324,-0.0459 -0.360573,0.0641 -0.4060593,0.23389 z m -0.9004771,0.79197 c -0.044643,0.16661 0.055631,0.35945 0.2332405,0.40801 0.1776085,0.0485 0.3621989,-0.0576 0.4093079,-0.23584 0.047109,-0.17824 -0.057411,-0.36337 -0.2371387,-0.4067 -0.1797282,-0.0434 -0.3607666,0.0679 -0.4054097,0.23453 z m 1.2850965,0.34435 c -0.049391,0.18432 0.056255,0.35978 0.2338901,0.408 0.1776354,0.0483 0.3615226,-0.0578 0.4086583,-0.23584 0.047135,-0.17797 -0.04726,-0.36089 -0.2364892,-0.40671 -0.1892294,-0.0458 -0.3566687,0.0502 -0.4060592,0.23455 z"
       sodipodi:nodetypes="ccccccssssccccccccccccccccccccccccccccccccccccccccccccccccccccccccccccccccccccccccssccsccscccccccsscccccccccccccccscccccsscssccccccccccccccccscccccccccscccccccccsccsccsccccccccccccccscccccsscccsccsssssssscccccccsccccccccsccccccczzzzzzzzzzzzzzz" />
  </g>
</svg>
