<?xml version="1.0" ?><svg viewBox="0 0 64 64" xmlns="http://www.w3.org/2000/svg"><defs><style>.cls-1{fill:#ccc;}.cls-2{fill:#f2f2f2;}.cls-3{fill:#adadad;}.cls-4{fill:#c4eff8;}.cls-5{fill:#d7f5fb;}.cls-6{fill:#bb8b6d;}.cls-7{fill:#e6e6e6;}.cls-8{fill:none;stroke:#000;stroke-linejoin:round;stroke-width:2px;}</style></defs><title/><g data-name="Layer 13" id="Layer_13"><polyline class="cls-1" points="26 8 26 2 6 2 6 8"/><polyline class="cls-2" points="32 14 26 8 6 8 10 14"/><polygon class="cls-2" points="6 8 10 14 10 62 2 62 2 14 6 8"/><rect class="cls-2" height="48" width="22" x="10" y="14"/><rect class="cls-3" height="32" width="22" x="10" y="22"/><rect class="cls-4" height="24" width="14" x="14" y="26"/><rect class="cls-5" height="24" width="11" x="14" y="26"/><polyline class="cls-6" points="40 32 40 22 44 22 44 32"/><path class="cls-2" d="M46,62H60a2,2,0,0,0,2-2h0a2,2,0,0,0-2-2H54a2,2,0,0,1-2-2h0a2,2,0,0,1,2-2h2a2,2,0,0,0,2-2h0a2,2,0,0,0-2-2H46"/><rect class="cls-4" height="30" width="18" x="28" y="32"/><rect class="cls-5" height="30" width="15" x="28" y="32"/><rect class="cls-7" height="20" width="18" x="28" y="38"/><rect class="cls-2" height="20" width="15" x="28" y="38"/><polyline class="cls-8" points="32 32 32 14 10 14 10 62 28 62"/><polyline class="cls-8" points="32 14 26 8 6 8 10 14"/><polyline class="cls-8" points="6 8 2 14 2 62 10 62"/><polyline class="cls-8" points="26 8 26 2 6 2 6 8"/><polyline class="cls-8" points="28 50 14 50 14 26 28 26 28 29"/><line class="cls-8" x1="32" x2="10" y1="22" y2="22"/><line class="cls-8" x1="28" x2="10" y1="54" y2="54"/><rect class="cls-8" height="30" width="18" x="28" y="32"/><line class="cls-8" x1="28" x2="46" y1="58" y2="58"/><line class="cls-8" x1="28" x2="46" y1="38" y2="38"/><polyline class="cls-8" points="40 32 40 22 44 22 44 32"/><path class="cls-8" d="M46,62H60a2,2,0,0,0,2-2h0a2,2,0,0,0-2-2H54a2,2,0,0,1-2-2h0a2,2,0,0,1,2-2h2a2,2,0,0,0,2-2h0a2,2,0,0,0-2-2H46"/></g></svg>