<?xml version="1.0" ?><svg viewBox="0 0 48 48" xmlns="http://www.w3.org/2000/svg"><title/><g id="Doctor"><path d="M44,41.35a11.07,11.07,0,0,0-6.88-8.3l-7.75-3c-.1,0,0,.22-.27-1.48A10,10,0,0,0,34,20a4,4,0,0,0,.85-7.9L33.51,4.71A5,5,0,0,0,29.21.64c-6.57-.82-3.85-.82-10.42,0a5,5,0,0,0-4.3,4.07L13.15,12.1A4,4,0,0,0,14,20a10,10,0,0,0,4.91,8.59c-.24,1.68-.17,1.44-.27,1.48l-7.76,3A11.08,11.08,0,0,0,4,41.35L3,46.82a1,1,0,0,0,2,.36l1-5.47a9.05,9.05,0,0,1,5.62-6.79l6.76-2.6C23.43,48.53,23,47.44,23.3,47.7a1,1,0,0,0,.7.3c1,0,.65.27,5.64-15.68l6.76,2.6A9.05,9.05,0,0,1,42,41.71l1,5.47a1,1,0,0,0,2-.36Zm-20,2.3-2.6-8.33a5.29,5.29,0,0,0,5.2,0ZM20.17,27c-.24-.13-.17.29-.17-4a1,1,0,0,1,1-1h6a1,1,0,0,1,1,1v3.92A7.92,7.92,0,0,1,20.17,27ZM31.91,14l-3,6.72c-1.19-1-2-.72-7.92-.72a3,3,0,0,0-1.92.72l-3-6.72ZM30,25.27V23.21c2.4-5.39,2-4.62,2-4.21C32,21.12,31.9,23.12,30,25.27ZM36,16a2,2,0,0,1-2,2V14A2,2,0,0,1,36,16ZM16.46,5.07A3,3,0,0,1,19,2.63c6-.75,3.67-.78,9.92,0a3,3,0,0,1,2.58,2.44L32.8,12H15.2ZM12,16a2,2,0,0,1,2-2v4A2,2,0,0,1,12,16Zm4,2.71c2.4,5.4,2,4,2,6.56C16,23,16,20.73,16,18.71ZM27.2,29.47l.1.72a3.33,3.33,0,1,1-6.6,0l.1-.72A9.88,9.88,0,0,0,27.2,29.47Z"/><path d="M25,9V8h1a1,1,0,0,0,0-2H25V5a1,1,0,0,0-2,0V6H22a1,1,0,0,0,0,2h1V9A1,1,0,0,0,25,9Z"/><path d="M25,24H23a1,1,0,0,0,0,2h2A1,1,0,0,0,25,24Z"/><path d="M20.69,17.72c.32-.29.49-.12.6,0a1,1,0,0,0,1.42,0c1.22-1.22-1.57-3.27-3.42-1.42A1,1,0,0,0,20.69,17.72Z"/><path d="M26.69,17.72c.54-.49.53.28,1.31.28a1,1,0,0,0,.71-1.71c-1.81-1.8-4.62.15-3.42,1.4A1,1,0,0,0,26.69,17.72Z"/><path d="M37,42H35V41a1,1,0,0,0-2,0v1H31a1,1,0,0,0-1,1v4a1,1,0,0,0,2,0V44h4v3a1,1,0,0,0,2,0V43A1,1,0,0,0,37,42Z"/></g></svg>