<?xml version="1.0" encoding="iso-8859-1"?>
<!-- Generator: Adobe Illustrator 19.1.0, SVG Export Plug-In . SVG Version: 6.00 Build 0)  -->
<svg version="1.1" id="Capa_1" xmlns="http://www.w3.org/2000/svg" xmlns:xlink="http://www.w3.org/1999/xlink" x="0px" y="0px"
	 viewBox="0 0 289.739 289.739" style="enable-background:new 0 0 289.739 289.739;" xml:space="preserve">
<g>
	<g>
		<path d="M244.165,89.336l-16.298-36.821h10.865c3.622,0,6.036-2.414,6.036-6.036V6.036c0-3.622-2.414-6.036-6.036-6.036H51.006
			c-3.622,0-6.036,2.414-6.036,6.036v41.046c0,3.622,2.414,6.036,6.036,6.036h10.865L45.573,89.94
			c-0.604,0.604-0.604,1.811-0.604,2.414v30.181v117.706v43.461c0,3.622,2.414,6.036,6.036,6.036h187.726
			c3.622,0,6.036-2.414,6.036-6.036V92.354C244.769,91.147,244.165,90.543,244.165,89.336z M56.439,12.072h175.654v28.974H56.439
			V12.072z M75.151,53.119h139.437l18.109,40.443v22.938H57.042c0-4.829,0-22.938,0-22.938L75.151,53.119z M232.696,234.205H57.042
			c0-38.028,0-73.038,0-105.634h175.654V234.205z M56.439,277.666c0,0,0-22.334,0-31.388h175.654v31.388H56.439z"/>
		<path d="M144.568,226.358c20.523,0,37.425-19.919,37.425-45.272c0-24.749-16.901-45.272-37.425-45.272
			s-37.425,19.919-37.425,45.272S124.044,226.358,144.568,226.358z M144.568,148.491c13.883,0,25.352,14.487,25.352,33.199
			c0,18.109-11.469,33.199-25.352,33.199c-13.883,0-25.352-14.487-25.352-33.199S130.684,148.491,144.568,148.491z"/>
	</g>
</g>
<g>
</g>
<g>
</g>
<g>
</g>
<g>
</g>
<g>
</g>
<g>
</g>
<g>
</g>
<g>
</g>
<g>
</g>
<g>
</g>
<g>
</g>
<g>
</g>
<g>
</g>
<g>
</g>
<g>
</g>
</svg>
